# xmcd
#
# Track frame offsets: 
#        150
#        21400
#        44137
#        64925
#        84227
#        98030
#        117457
#        138002
#        157202
#        182942
#        205325
#        228090
#        253420
#        279700
#        304020
#
# Disc length: 4278 seconds
#
# Revision: 2
# Processed by: cddbd v1.5.2PL0 Copyright (c) Steve Scherf et al.
# Submitted via: ExactAudioCopy v1.3
#
DISCID=de10b40f
DTITLE=European Jazz Trio - Best Of Classics [Disc 2]
DYEAR=2006
DGENRE=Jazz
TTITLE0=Tchaikovsky: Valse des Fleurs (The Nut-cracker)
TTITLE1=Mozart: Sonata in A Major No.11 K.331, 1st Movement Theme
TTITLE2=Chopin: Ballade No.1 (op.23)
TTITLE3=Chopin: Etude No.5 (op.25-5)
TTITLE4=Mozart: Symphony No.40 1st Movement Allegro Molto (K.550)
TTITLE5=Elgar: Nimrod (Enigma Variations No.9)
TTITLE6=Beethoven: Adagio Cantabile (2nd Movement From Sonata For Klav
TTITLE6=ier No.8 'pathetique' op.13)
TTITLE7=Tchaikovsky: The Swan Lake
TTITLE8=Schubert: Ave Maria
TTITLE9=Chopin: Prelude No.4 (24 Preludes op.28-4)
TTITLE10=Beethoven: Fur Elise
TTITLE11=Wolf-Ferrari: The Jewels of the Madonna - Intermezzo
TTITLE12=Puccini: O mio Babbino Caro (Gianni Schicchi)
TTITLE13=D.Scarlatti: Sonata (D-Minor K.9)
TTITLE14=Milhaud: Valse (Les Songes)
EXTD=YEAR: 2006
EXTT0=
EXTT1=
EXTT2=
EXTT3=
EXTT4=
EXTT5=
EXTT6=
EXTT7=
EXTT8=
EXTT9=
EXTT10=
EXTT11=
EXTT12=
EXTT13=
EXTT14=
PLAYORDER=
